<?xml version="1.0" encoding="UTF-8" standalone="no"?>
<svg
   viewBox="0 0 824.24444 105.43992"
   id="svg2"
   height="105.43992"
   width="824.24445"
   version="1.1"
   xmlns="http://www.w3.org/2000/svg"
   xmlns:svg="http://www.w3.org/2000/svg">
  <g
     id="g4139"
     transform="matrix(1.9099474,0,0,1.9099474,-144.67386,-959.35391)">
    <path
       d="m 175.2253,507.5762 -8.5184,10.6982 h -25.5552 l -9.1493,11.6734 9.4648,11.3578 h 24.9242 l 8.5184,10.9106 h -40.068 l -17.7973,-22.32 18.1128,-22.32 z"
       style="fill:#ffffff;fill-rule:evenodd"
       id="path4" />
    <path
       d="m 230.4371,507.5762 h 12.6199 l 0.3155,32.152 24.9242,-32.152 h 20.8227 v 44.64 h -12.9353 v -32.6795 l -25.5552,32.6795 h -20.1918 z"
       style="fill:#ffffff;fill-rule:evenodd"
       id="path6" />
    <path
       d="m 294.4828,552.2162 v -44.64 h 19.8763 l 26.1862,32.152 v -32.152 h 12.9353 v 44.64 h -19.8763 l -25.5551,-32.6798 v 32.6798 z"
       style="fill:#c5a059;fill-rule:evenodd"
       id="path8" />
    <path
       d="m 360.4215,507.5762 h 89.2854 l 13.2508,17.0081 -9.4648,10.7269 12.5112,16.905 h -13.4577 l -7.5719,-11.2261 h -15.4594 v -10.411 h 14.1974 l 5.0479,-5.6793 -5.3634,-6.9409 h -70.3556 l -0.3155,7.5719 h 27.1326 l -5.3634,8.2029 h -21.4537 v 7.2564 h 25.8706 l 8.5184,11.2261 h -47.0089 z"
       style="fill:#ffffff;fill-rule:evenodd"
       id="path10" />
    <path
       d="m 411.8474,521.4294 v 30.7868 h 13.5663 v -30.7868 z"
       style="fill:#ffffff;fill-rule:evenodd"
       id="path12" />
    <path
       d="m 179.0705,529.3168 9.0902,-11.0424 h 21.1382 l 3.786,4.1015 v 18.6142 h -24.924 z m -14.8875,0 18.2987,-21.7406 h 32.1809 l 11.3576,13.5377 v 31.1023 h -43.854 z"
       style="fill:#ffffff;fill-rule:evenodd"
       id="path14" />
  </g>
</svg>
