<?xml version="1.0" encoding="UTF-8"?>
<svg id="Warstwa_1" xmlns="http://www.w3.org/2000/svg" version="1.1" viewBox="0 0 283.46 283.46">
  <!-- Generator: Adobe Illustrator 29.6.1, SVG Export Plug-In . SVG Version: 2.1.1 Build 9)  -->
  <defs>
    <style>
      .st0 {
        fill: #010101;
      }
    </style>
  </defs>
  <path class="st0" d="M140.16,17.07c2.95-3.2,5.79-6.22,8.55-9.32,1.23-1.39,2.14-1.42,3.4.05,3.71,4.35,6.18,9.5,8.18,14.88,2.55,6.85,4.92,13.83,4.61,21.42-.07,1.84.63,2.71,2.34,2.97,5.4.83,10.76,1.87,16.02,3.49,7.26,2.23,14.27,5.07,20.41,9.89,4.37,3.43,8.46,3.3,12.71-.11,1.84-1.48,3.86-2.7,6.62-4.61.32,14.82.62,28.94.92,43.06-.26.12-.52.24-.78.36-8.06-15.19-16.31-30.21-31.39-38.71-.96,1.42.03,2.02.56,2.73,7.69,10.45,12.62,21.99,12.66,35.64.01,4.39,2.04,8.26,3.7,12.15,2.45,5.72,5.03,11.36,7.62,17,.96,2.09,1.43,4.27.44,6.34-5.43,11.39-12.75,20.55-24.93,23.68-3.51.9-6.8-.2-10-1.59-4.29-1.86-8.38-4.22-12.76-5.88-19.29-7.28-33.99,9.47-36.4,24.13-3.03,18.38.75,35.69,6.84,52.65,3.21,8.96,7.14,17.57,11.48,25.95,2.24,4.31,5.28,7.95,8.19,11.71,1.09,1.41,2.41,1.59,3.96,1.61,18.9.34,33.95-8.33,46.33-23.14,8.97-10.73,14.64-23.46,19.11-36.92.42-1.26.52-2.75,1.81-3.53,1.06.49.55,1.37.51,2.07-.46,8.17-.93,16.33-1.43,24.49-.36,5.87-.77,11.74-1.11,17.61-.07,1.16-.7,1.78-1.45,2.4-17.38,14.4-36.55,24.03-58.64,26.46-26.01,2.85-50.07-2.56-71.82-18.59-14.03-10.34-24.4-24.11-32.03-40.32-8.16-17.32-12.32-35.86-11.9-55.19.73-32.69,10.8-61.56,32.53-85.04,4.47-4.82,9.41-9.13,14.84-12.56,6.06-3.83,10.73-8.9,14.69-15.09,7.44-11.63,16.21-22.08,25.64-32.18M91.27,227.49c12.3,21.24,30.52,32.94,53.02,38.6-.34-2.27-1.48-3.5-2.44-4.75-7.46-9.82-13.51-20.49-17.54-32.47-4.42-13.16-7.75-26.46-5.94-40.68,2.07-16.29,8.41-29.88,21.17-39.5,7.45-5.62,15.54-8.8,24.77-7.54,5.98.82,11.47,3.29,16.61,6.5,9.05,5.65,16.37,2.96,23.3-3.65,2.86-2.72,3.07-4.79,1.4-8.53-.58-1.3-1.78-2.34-1.64-4.13,1.07-.29,2.13-.59,3.19-.86,3.72-.95,4.09-1.9,2.2-5.56-2.07-4.01-4.09-8.07-6.25-12.03-2.46-4.5-3.66-9.44-3.99-14.53-.46-7.07-1.94-13.79-4.67-20.21-6.17-14.48-16.01-23.49-31.31-24.27-4.62-.23-5.02-.38-4.59-5.42.86-10.06-2.28-18.87-6.67-27.38-1.52-2.95-2.02-3.01-4.3-.7-16.03,16.26-29.93,34.37-40.74,55.11-10.41,19.96-16.19,41.27-15.95,64.33.06,5.99.41,11.96,1.08,17.9,1.8,15.87,5.39,31.16,12.44,45.36.24.48.71,1-.04,1.61-13.28-16.58-18.55-36.29-20.04-57.7-1.48-21.33,2.44-41.53,9.91-61.14-19.05,21.91-30.47,93.2-2.99,141.64h0Z"/>
  <path class="st0" d="M185.13,107.93c-6.22-1.78-11.7-4.49-15.83-9.73-.91-1.16-1.99-2.26-2.41-4.48,2.47,1.27,4.52,2.32,6.56,3.35,3.82,1.93,8.07,2.09,12.05,3.36,6.07,1.93,9.74,8.45,8.45,15.69-2.71-3.25-4.71-7-8.83-8.19h0Z"/>
</svg>